<svg id="Layer_1" data-name="Layer 1" xmlns="http://www.w3.org/2000/svg" viewBox="0 0 360 360"><defs><style>.cls-1{fill:#fff;}</style></defs><path class="cls-1" d="M165.84,223a12.6,12.6,0,0,0,2-6.17c0-2.46-.51-5.67-2.62-7.74a8.06,8.06,0,0,0-7.5-2.09,13.35,13.35,0,0,0-6.52,4.19s6.18-1.86,8.26-.82a6.65,6.65,0,0,1,3.26,5.79c-.35,2.94-1.34,5.16-5.66,6.5-5.39,1.67-10.85-1.17-16.88-4.91-5-3.11-16.71-15.86-29-19.2-5.3-1.44-16.38,1.21-13.55,12.57,2.47,9.89,21,17.81,30.72,21,13.08,4.27,29.4,2,36.81-8.09,0,0,.16-.21.4-.56Z"/><path class="cls-1" d="M31.43,223a12.6,12.6,0,0,1-2-6.17c0-2.46.51-5.67,2.62-7.74a8.06,8.06,0,0,1,7.5-2.09,13.35,13.35,0,0,1,6.52,4.19s-6.18-1.86-8.26-.82a6.65,6.65,0,0,0-3.26,5.79c.35,2.94,1.34,5.16,5.66,6.5,5.39,1.67,10.85-1.17,16.88-4.91,5-3.11,16.71-15.86,29-19.2,5.3-1.44,16.38,1.21,13.55,12.57-2.47,9.89-21,17.81-30.72,21-13.08,4.27-29.4,2-36.81-8.09,0,0-.16-.21-.4-.56Z"/><path class="cls-1" d="M54.93,169.76a21.39,21.39,0,0,1-11.38-2.87,18.69,18.69,0,0,1-7.12-7.8,24.46,24.46,0,0,1-2.44-11,25.21,25.21,0,0,1,2.38-11.12,18.62,18.62,0,0,1,6.89-7.8,19.9,19.9,0,0,1,10.91-2.86,27.48,27.48,0,0,1,4.81.42,28.26,28.26,0,0,1,4.44,1.16,24,24,0,0,1,3.73,1.66l-.59,5.14a25.55,25.55,0,0,0-4.42-2.08,21.76,21.76,0,0,0-4-1,22.66,22.66,0,0,0-3.42-.28,14.35,14.35,0,0,0-11.06,4.49q-4.16,4.48-4.15,12.16a20,20,0,0,0,1.81,8.64,14.07,14.07,0,0,0,5.42,6.06,16.77,16.77,0,0,0,9,2.24,20.54,20.54,0,0,0,3.73-.34,20.27,20.27,0,0,0,3.69-1,21.18,21.18,0,0,0,3.5-1.75l.63,5.18a22.24,22.24,0,0,1-3.22,1.37,26.26,26.26,0,0,1-4.18,1.06A29.77,29.77,0,0,1,54.93,169.76Z"/><path class="cls-1" d="M79.12,169V107.31l5.43-.81v28h.68a22.47,22.47,0,0,1,3.33-3.71,18.71,18.71,0,0,1,4.91-3.21,15.53,15.53,0,0,1,6.55-1.3q6.78,0,9.8,3.85t3,11.11V169h-5.44V142.41q0-5.4-1.93-8.16c-1.3-1.84-3.64-2.76-7-2.76a12.64,12.64,0,0,0-5.65,1.25,16.3,16.3,0,0,0-4.55,3.33,30.33,30.33,0,0,0-3.67,4.61V169Z"/><path class="cls-1" d="M136.93,169.8a14.4,14.4,0,0,1-6.66-1.46,10.46,10.46,0,0,1-4.38-4.13,12.34,12.34,0,0,1-1.56-6.34,11.85,11.85,0,0,1,1.22-5.64,10.92,10.92,0,0,1,3.23-3.73,16.78,16.78,0,0,1,4.36-2.28,30.58,30.58,0,0,1,4.68-1.24l13.65-2.53q.17-4.8-1.2-7.23A6.8,6.8,0,0,0,146.5,132a16.25,16.25,0,0,0-5.31-.82,26.19,26.19,0,0,0-3.08.19,29.56,29.56,0,0,0-3.45.61c-1.21.28-2.5.64-3.86,1.09s-2.8,1-4.32,1.65l-.34-5.15c1-.42,2.15-.82,3.4-1.22s2.57-.74,4-1.05,2.84-.55,4.32-.74a35.53,35.53,0,0,1,4.32-.27,19,19,0,0,1,7.77,1.45,10.47,10.47,0,0,1,5,4.62,16.72,16.72,0,0,1,1.75,8.13V169h-5l-.21-6.2h-.67a17.52,17.52,0,0,1-3.39,3.39,18.48,18.48,0,0,1-4.77,2.64A16.2,16.2,0,0,1,136.93,169.8Zm1.35-4.72a13.4,13.4,0,0,0,4.85-1,14.27,14.27,0,0,0,4.57-2.93,16.69,16.69,0,0,0,3.6-5l0-10.2a13.82,13.82,0,0,1-1.89.78c-.79.27-2,.57-3.54.93s-3.78.79-6.62,1.32a18.33,18.33,0,0,0-4.78,1.48,8.59,8.59,0,0,0-3.39,2.76,7.25,7.25,0,0,0-1.27,4.4q0,4.05,2.43,5.73A10.19,10.19,0,0,0,138.28,165.08Z"/><path class="cls-1" d="M171.15,169V127.2l4.84-.34.17,8.76h.59a16.46,16.46,0,0,1,4.07-6,12.49,12.49,0,0,1,4.72-2.7,16.09,16.09,0,0,1,4.36-.67,15.51,15.51,0,0,1,2.38.17,11.33,11.33,0,0,1,2.21.54l-.46,5.57c-.87-.23-1.67-.4-2.4-.53a14.9,14.9,0,0,0-2.57-.19,13.09,13.09,0,0,0-2.83.38,10,10,0,0,0-3.39,1.6,13.66,13.66,0,0,0-3.37,3.67,25.84,25.84,0,0,0-2.89,6.57V169Z"/><path class="cls-1" d="M204.52,169V107.31l5.44-.81V169Z"/><path class="cls-1" d="M228.16,116.7a4.88,4.88,0,0,1-3.18-8.11,4.62,4.62,0,0,1,3.27-1.16,4.43,4.43,0,0,1,3.24,1.2,4.59,4.59,0,0,1,1.22,3.44,4.52,4.52,0,0,1-1.22,3.49A4.67,4.67,0,0,1,228.16,116.7ZM225.63,169V127.2L231,127V169Z"/><path class="cls-1" d="M265,169.8q-7.32,0-12.11-2.85a17.63,17.63,0,0,1-7.12-7.81,26.36,26.36,0,0,1-2.34-11.34,25.4,25.4,0,0,1,2.34-11.14,19.09,19.09,0,0,1,25.66-8.31,14,14,0,0,1,5.79,6.05,21,21,0,0,1,2,9.65c0,1,0,1.93-.07,2.76a20.5,20.5,0,0,1-.27,2.47l-4.8-2.79c.05-.44.09-.88.1-1.3s0-.83,0-1.22q0-6.58-3.2-9.84a11.28,11.28,0,0,0-8.43-3.27,12.58,12.58,0,0,0-7.35,2.11,13.34,13.34,0,0,0-4.68,5.81,21,21,0,0,0-1.62,8.47V148a21,21,0,0,0,1.79,9,12.85,12.85,0,0,0,5.44,5.85,18.52,18.52,0,0,0,9.25,2.07,27.32,27.32,0,0,0,4.25-.34,28.72,28.72,0,0,0,4.34-1,22.44,22.44,0,0,0,4.13-1.77l.3,5.1a20.3,20.3,0,0,1-3.71,1.54,30.92,30.92,0,0,1-4.6,1A35.75,35.75,0,0,1,265,169.8Zm-19.17-20.52v-4.09l29.62-.17,3.46,1.14v3.12Z"/><path class="cls-1" d="M285,128.67a26.14,26.14,0,0,0,2.61-4.66,20.64,20.64,0,0,0,1.37-4.8,34.31,34.31,0,0,0,.4-5.46v-7.37l2.95-.21a3.65,3.65,0,0,1,2.89,1.51,6,6,0,0,1,.9,3.42,20.16,20.16,0,0,1-.63,5,26.17,26.17,0,0,1-1.73,4.8,25.39,25.39,0,0,1-2.53,4.28,25,25,0,0,1-3,3.44Z"/><path class="cls-1" d="M314.8,169.8a33.65,33.65,0,0,1-10-1.54,24.51,24.51,0,0,1-4-1.66l.5-5.23a28.31,28.31,0,0,0,4.13,1.9,29.67,29.67,0,0,0,4.53,1.24,26.07,26.07,0,0,0,4.78.44,16.36,16.36,0,0,0,4.66-.63,6.68,6.68,0,0,0,3.41-2.23,7.26,7.26,0,0,0,1.29-4.64,4.92,4.92,0,0,0-1.07-3.26,9,9,0,0,0-3.59-2.3c-1.67-.68-3.92-1.43-6.76-2.28a33.9,33.9,0,0,1-5.82-2.23,11,11,0,0,1-4.17-3.52A9.92,9.92,0,0,1,301.1,138a10.87,10.87,0,0,1,3.61-8.55q3.6-3.19,9.71-3.2a25.7,25.7,0,0,1,4.76.44,28.62,28.62,0,0,1,4.34,1.18,22.71,22.71,0,0,1,3.5,1.58l-.51,5.27a23.87,23.87,0,0,0-4.15-2.11,22.34,22.34,0,0,0-4-1.14,20.72,20.72,0,0,0-3.48-.33,13.64,13.64,0,0,0-3.66.52,6.72,6.72,0,0,0-3.23,2,6.1,6.1,0,0,0-1.32,4.24,5.66,5.66,0,0,0,.9,3.26,7.3,7.3,0,0,0,3,2.32,41.16,41.16,0,0,0,5.71,2.05,64.73,64.73,0,0,1,7.06,2.52,11.36,11.36,0,0,1,4.64,3.46,9.59,9.59,0,0,1,1.62,5.9,12.87,12.87,0,0,1-1.54,6.28,10.75,10.75,0,0,1-4.78,4.46A18.72,18.72,0,0,1,314.8,169.8Z"/><path class="cls-1" d="M197.63,240.68a21.38,21.38,0,0,1-11.37-2.87,18.75,18.75,0,0,1-7.13-7.79,24.52,24.52,0,0,1-2.44-11,25.25,25.25,0,0,1,2.38-11.13,18.73,18.73,0,0,1,6.89-7.79,19.94,19.94,0,0,1,10.92-2.87,27.37,27.37,0,0,1,4.8.42,28.26,28.26,0,0,1,4.44,1.16,22.7,22.7,0,0,1,3.73,1.67l-.59,5.14a25.64,25.64,0,0,0-4.42-2.09,21.76,21.76,0,0,0-4-1,23.92,23.92,0,0,0-3.41-.27,14.36,14.36,0,0,0-11.07,4.48q-4.14,4.5-4.15,12.16a20,20,0,0,0,1.82,8.64,14,14,0,0,0,5.41,6.07,16.78,16.78,0,0,0,9,2.23,20.62,20.62,0,0,0,3.73-.34,20.17,20.17,0,0,0,3.68-1,19.39,19.39,0,0,0,3.5-1.75l.63,5.19a23.47,23.47,0,0,1-3.22,1.36,26.4,26.4,0,0,1-4.17,1.06A29.89,29.89,0,0,1,197.63,240.68Z"/><path class="cls-1" d="M231.47,240.72a14.35,14.35,0,0,1-6.66-1.45,10.58,10.58,0,0,1-4.38-4.13,12.4,12.4,0,0,1-1.56-6.35,11.88,11.88,0,0,1,1.22-5.64,10.92,10.92,0,0,1,3.23-3.73,16.63,16.63,0,0,1,4.36-2.28,31.78,31.78,0,0,1,4.68-1.24L246,213.37q.17-4.8-1.2-7.22A6.81,6.81,0,0,0,241,202.9a16.25,16.25,0,0,0-5.31-.82,26.19,26.19,0,0,0-3.08.19,31.82,31.82,0,0,0-3.45.61c-1.21.28-2.5.65-3.86,1.1s-2.8,1-4.32,1.64l-.34-5.14c1-.42,2.15-.83,3.4-1.22s2.57-.75,4-1.06,2.84-.55,4.32-.74a35.53,35.53,0,0,1,4.32-.27,19.17,19.17,0,0,1,7.77,1.45,10.47,10.47,0,0,1,5,4.62,16.78,16.78,0,0,1,1.74,8.13v28.49h-5l-.21-6.2h-.67a17.62,17.62,0,0,1-3.4,3.4,17.94,17.94,0,0,1-4.76,2.63A16.2,16.2,0,0,1,231.47,240.72Zm1.35-4.72a13.19,13.19,0,0,0,4.85-.95,14.21,14.21,0,0,0,4.57-2.93,16.69,16.69,0,0,0,3.6-5l0-10.2a13.13,13.13,0,0,1-1.89.78,36.05,36.05,0,0,1-3.54.93c-1.58.35-3.78.79-6.62,1.33a18.71,18.71,0,0,0-4.78,1.47,8.67,8.67,0,0,0-3.39,2.76,7.27,7.27,0,0,0-1.27,4.4q0,4,2.42,5.74A10.31,10.31,0,0,0,232.82,236Z"/><path class="cls-1" d="M260.08,202.58v-4.46h28.53v4.46H260.08Zm8.18,37.3V192.3a19.54,19.54,0,0,1,1.16-7.22,11.57,11.57,0,0,1,3.2-4.68,12.46,12.46,0,0,1,4.72-2.53,20.44,20.44,0,0,1,5.75-.78c.93,0,1.84,0,2.74.13a19.2,19.2,0,0,1,2.49.38,18.35,18.35,0,0,1,2,.54l-.55,4.89a14.14,14.14,0,0,0-2.85-.76,19.64,19.64,0,0,0-3.22-.25q-5.35,0-7.75,2.59t-2.4,7.78v5.73l.16,1.47v40.29Z"/><path class="cls-1" d="M314.78,240.72q-7.33,0-12.11-2.84a17.68,17.68,0,0,1-7.13-7.82,26.44,26.44,0,0,1-2.33-11.34,25.54,25.54,0,0,1,2.33-11.14,19.08,19.08,0,0,1,25.67-8.3,14,14,0,0,1,5.79,6,21,21,0,0,1,2,9.65q0,1.53-.06,2.76a20.5,20.5,0,0,1-.27,2.47l-4.81-2.78c.06-.45.09-.89.11-1.31s0-.83,0-1.22q0-6.57-3.2-9.84a11.28,11.28,0,0,0-8.43-3.27,12.63,12.63,0,0,0-7.35,2.11,13.36,13.36,0,0,0-4.68,5.82,20.94,20.94,0,0,0-1.62,8.47v.71a20.86,20.86,0,0,0,1.79,9,12.9,12.9,0,0,0,5.43,5.86,18.68,18.68,0,0,0,9.25,2.06,28.58,28.58,0,0,0,4.26-.33,30,30,0,0,0,4.34-1,21.15,21.15,0,0,0,4.13-1.77l.29,5.1a19.08,19.08,0,0,1-3.71,1.54,29.32,29.32,0,0,1-4.59,1A35.85,35.85,0,0,1,314.78,240.72ZM295.61,220.2v-4.09l29.62-.17,3.46,1.14v3.12Z"/></svg>