<svg id="Layer_1" data-name="Layer 1" xmlns="http://www.w3.org/2000/svg" viewBox="0 0 360 360"><defs><style>.cls-1{fill:#fff;}</style></defs><path class="cls-1" d="M323.07,194.55c1.63-2.49,4.25-7.92,4.25-13.13s-1.1-12.08-5.57-16.47c-3.22-3.16-9.49-6.27-16-4.46a28.51,28.51,0,0,0-13.88,8.92s13.16-3.95,17.59-1.74c5,2.48,7.32,9.14,6.94,12.33-.74,6.26-2.86,11-12.06,13.83-11.47,3.55-23.1-2.49-35.93-10.45-10.69-6.62-35.58-33.78-61.75-40.88-11.27-3.06-34.87,2.57-28.83,26.76,5.26,21.07,44.74,37.91,65.39,44.64,27.85,9.07,62.6,4.32,78.38-17.25,0,0,.33-.44.84-1.18Z"/><path class="cls-1" d="M36.93,194.55c-1.63-2.49-4.25-7.92-4.25-13.13s1.1-12.08,5.57-16.47c3.22-3.16,9.49-6.27,16-4.46a28.51,28.51,0,0,1,13.88,8.92S55,165.46,50.52,167.67c-5,2.48-7.32,9.14-6.94,12.33.74,6.26,2.86,11,12.06,13.83,11.47,3.55,23.1-2.49,35.93-10.45,10.69-6.62,35.58-33.78,61.75-40.88,11.27-3.06,34.87,2.57,28.83,26.76-5.26,21.07-44.74,37.91-65.39,44.64-27.85,9.07-62.6,4.32-78.38-17.25,0,0-.33-.44-.84-1.18Z"/></svg>